<?xml version="1.0" encoding="UTF-8"?>
<svg width="54px" height="16px" viewBox="0 0 54 16" version="1.1" xmlns="http://www.w3.org/2000/svg" xmlns:xlink="http://www.w3.org/1999/xlink">
    <!-- Generator: Sketch 48.2 (47327) - http://www.bohemiancoding.com/sketch -->
    <title>BLOG</title>
    <desc>Created with Sketch.</desc>
    <defs></defs>
    <g id="Desktop-HD-Copy-2" stroke="none" stroke-width="1" fill="none" fill-rule="evenodd" transform="translate(-1161.000000, -91.000000)">
        <path d="M1161.58,106 L1161.58,91.84 L1167.1,91.84 C1169.24,91.84 1171.44,92.82 1171.44,95.4 C1171.44,97 1170.44,98.06 1168.98,98.5 L1168.98,98.54 C1170.76,98.74 1172.04,100.14 1172.04,101.96 C1172.04,105.04 1169.36,106 1166.68,106 L1161.58,106 Z M1164.1,94 L1164.1,97.6 L1166.4,97.6 C1168.08,97.6 1168.92,96.88 1168.92,95.82 C1168.92,94.6 1168.08,94 1166.18,94 L1164.1,94 Z M1164.1,99.76 L1164.1,103.84 L1166.42,103.84 C1167.72,103.84 1169.52,103.62 1169.52,101.76 C1169.52,100.28 1168.56,99.76 1166.52,99.76 L1164.1,99.76 Z M1174.54,106 L1174.54,91.84 L1177.06,91.84 L1177.06,103.72 L1183.08,103.72 L1183.08,106 L1174.54,106 Z M1184.16,98.98 C1184.16,94.44 1187.28,91.48 1191.64,91.48 C1196.06,91.4 1199.18,94.36 1199.18,98.9 C1199.18,103.32 1196.06,106.28 1191.64,106.36 C1187.28,106.36 1184.16,103.4 1184.16,98.98 Z M1186.8,98.82 C1186.8,101.84 1188.74,104.08 1191.66,104.08 C1194.6,104.08 1196.54,101.84 1196.54,98.82 C1196.54,96 1194.6,93.76 1191.66,93.76 C1188.74,93.76 1186.8,96 1186.8,98.82 Z M1214.16,97.72 L1214.16,104.96 C1212.44,105.88 1210.48,106.36 1208.3,106.36 C1203.94,106.36 1200.82,103.4 1200.82,98.98 C1200.82,94.44 1203.94,91.48 1208.3,91.48 C1210.46,91.48 1212.4,91.94 1213.88,93.26 L1212.02,95.14 C1211.12,94.26 1209.74,93.76 1208.32,93.76 C1205.4,93.76 1203.46,96 1203.46,98.82 C1203.46,101.84 1205.4,104.08 1208.32,104.08 C1209.6,104.08 1210.76,103.84 1211.64,103.34 L1211.64,100 L1208.74,100 L1208.74,97.72 L1214.16,97.72 Z" id="BLOG" fill="#FFFFFF"></path>
    </g>
</svg>