<?xml version="1.0" encoding="UTF-8"?>
<svg width="395px" height="65px" viewBox="0 0 495 75" version="1.1" xmlns="http://www.w3.org/2000/svg" xmlns:xlink="http://www.w3.org/1999/xlink">
    <!-- Generator: Sketch 48.2 (47327) - http://www.bohemiancoding.com/sketch -->
    <title>The best way to conn</title>
    <desc>Created with Sketch.</desc>
    <defs></defs>
    <g id="Desktop-HD-Copy-5" stroke="none" stroke-width="1" fill="none" fill-rule="evenodd" transform="translate(-820.000000, -457.000000)">
        <path d="M828.064,485 L828.064,463.616 L820.252,463.616 L820.252,459.512 L840.412,459.512 L840.412,463.616 L832.6,463.616 L832.6,485 L828.064,485 Z M847.432,457.784 L847.432,470.132 L847.504,470.132 C848.188,468.692 849.916,467.288 852.58,467.288 C857.224,467.288 858.88,470.564 858.88,474.092 L858.88,485 L854.56,485 L854.56,476.252 C854.56,474.344 854.416,471.176 851.392,471.176 C848.548,471.176 847.432,473.264 847.432,475.568 L847.432,485 L843.112,485 L843.112,457.784 L847.432,457.784 Z M880.408,477.872 L867.232,477.872 C867.52,480.428 869.464,481.976 871.876,481.976 C874.036,481.976 875.44,480.968 876.52,479.636 L879.616,481.976 C877.6,484.46 875.044,485.432 872.308,485.432 C867.088,485.432 862.912,481.796 862.912,476.36 C862.912,470.924 867.088,467.288 872.308,467.288 C877.132,467.288 880.408,470.672 880.408,476.684 L880.408,477.872 Z M867.232,474.632 L876.088,474.632 C876.052,472.112 874.396,470.528 871.696,470.528 C869.14,470.528 867.556,472.148 867.232,474.632 Z M895.096,485 L895.096,457.784 L899.416,457.784 L899.416,469.916 L899.524,469.916 C900.424,468.8 902.152,467.288 905.392,467.288 C910.324,467.288 913.744,471.248 913.744,476.36 C913.744,481.472 910.54,485.432 905.212,485.432 C902.8,485.432 900.532,484.496 899.272,482.408 L899.2,482.408 L899.2,485 L895.096,485 Z M909.424,476.36 C909.424,473.66 907.516,471.176 904.348,471.176 C901.18,471.176 899.272,473.66 899.272,476.36 C899.272,479.06 901.18,481.544 904.348,481.544 C907.516,481.544 909.424,479.06 909.424,476.36 Z M934.408,477.872 L921.232,477.872 C921.52,480.428 923.464,481.976 925.876,481.976 C928.036,481.976 929.44,480.968 930.52,479.636 L933.616,481.976 C931.6,484.46 929.044,485.432 926.308,485.432 C921.088,485.432 916.912,481.796 916.912,476.36 C916.912,470.924 921.088,467.288 926.308,467.288 C931.132,467.288 934.408,470.672 934.408,476.684 L934.408,477.872 Z M921.232,474.632 L930.088,474.632 C930.052,472.112 928.396,470.528 925.696,470.528 C923.14,470.528 921.556,472.148 921.232,474.632 Z M950.536,469.916 L947.656,472.508 C946.828,471.356 945.748,470.744 944.272,470.744 C943.12,470.744 941.752,471.284 941.752,472.58 C941.752,475.676 951.076,473.156 951.076,479.888 C951.076,483.992 947.152,485.432 943.624,485.432 C940.96,485.432 938.656,484.748 936.892,482.768 L939.772,480.068 C940.888,481.292 942.04,482.192 943.876,482.192 C945.136,482.192 946.756,481.58 946.756,480.212 C946.756,476.648 937.432,479.456 937.432,472.868 C937.432,469.016 940.888,467.288 944.38,467.288 C946.684,467.288 949.132,468.008 950.536,469.916 Z M955.972,471.392 L952.408,471.392 L952.408,467.72 L955.972,467.72 L955.972,462.716 L960.292,462.716 L960.292,467.72 L965.044,467.72 L965.044,471.392 L960.292,471.392 L960.292,478.952 C960.292,480.68 960.796,481.76 962.704,481.76 C963.46,481.76 964.504,481.616 965.044,481.22 L965.044,484.856 C964.144,485.288 962.632,485.432 961.624,485.432 C957.052,485.432 955.972,483.38 955.972,479.312 L955.972,471.392 Z M982.756,485 L976.744,467.72 L981.424,467.72 L985.168,479.816 L985.24,479.816 L988.732,467.72 L993.412,467.72 L997.156,479.816 L997.228,479.816 L1000.828,467.72 L1005.184,467.72 L999.316,485 L995.032,485 L990.928,473.192 L990.856,473.192 L987.22,485 L982.756,485 Z M1018.54,485 L1018.54,482.624 L1018.432,482.624 C1017.208,484.568 1015.192,485.432 1012.888,485.432 C1009.684,485.432 1006.588,483.668 1006.588,480.248 C1006.588,474.632 1013.14,474.236 1017.46,474.236 L1018.54,474.236 L1018.54,473.768 C1018.54,471.644 1016.884,470.528 1014.58,470.528 C1012.78,470.528 1011.124,471.248 1009.972,472.328 L1007.704,470.06 C1009.612,468.116 1012.312,467.288 1015.048,467.288 C1022.428,467.288 1022.428,472.616 1022.428,475.064 L1022.428,485 L1018.54,485 Z M1018.288,478.232 L1018.288,477.26 L1017.388,477.26 C1015.012,477.26 1010.908,477.44 1010.908,479.924 C1010.908,481.508 1012.528,482.192 1013.932,482.192 C1016.884,482.192 1018.288,480.644 1018.288,478.232 Z M1032.112,485.144 L1024.732,467.72 L1029.484,467.72 L1034.308,479.708 L1034.38,479.708 L1038.7,467.72 L1043.2,467.72 L1035.028,488.708 C1033.768,491.948 1032.256,493.64 1028.44,493.64 C1027.324,493.64 1026.208,493.496 1025.128,493.208 L1025.668,489.32 C1026.352,489.572 1027.108,489.752 1027.864,489.752 C1029.988,489.752 1030.564,488.996 1031.284,487.196 L1032.112,485.144 Z M1057.96,471.392 L1054.396,471.392 L1054.396,467.72 L1057.96,467.72 L1057.96,462.716 L1062.28,462.716 L1062.28,467.72 L1067.032,467.72 L1067.032,471.392 L1062.28,471.392 L1062.28,478.952 C1062.28,480.68 1062.784,481.76 1064.692,481.76 C1065.448,481.76 1066.492,481.616 1067.032,481.22 L1067.032,484.856 C1066.132,485.288 1064.62,485.432 1063.612,485.432 C1059.04,485.432 1057.96,483.38 1057.96,479.312 L1057.96,471.392 Z M1069.552,476.36 C1069.552,470.924 1073.728,467.288 1078.948,467.288 C1084.168,467.288 1088.344,470.924 1088.344,476.36 C1088.344,481.796 1084.168,485.432 1078.948,485.432 C1073.728,485.432 1069.552,481.796 1069.552,476.36 Z M1073.872,476.36 C1073.872,479.06 1075.78,481.544 1078.948,481.544 C1082.116,481.544 1084.024,479.06 1084.024,476.36 C1084.024,473.66 1082.116,471.176 1078.948,471.176 C1075.78,471.176 1073.872,473.66 1073.872,476.36 Z M1117.828,469.916 L1114.84,472.904 C1113.832,471.86 1112.716,471.176 1111.564,471.176 C1108.396,471.176 1106.488,473.66 1106.488,476.36 C1106.488,479.06 1108.396,481.544 1111.564,481.544 C1112.896,481.544 1114.12,480.968 1114.912,479.924 L1117.792,483.02 C1116.028,484.784 1113.076,485.432 1111.564,485.432 C1106.344,485.432 1102.168,481.796 1102.168,476.36 C1102.168,470.924 1106.344,467.288 1111.564,467.288 C1113.76,467.288 1116.172,468.08 1117.828,469.916 Z M1119.52,476.36 C1119.52,470.924 1123.696,467.288 1128.916,467.288 C1134.136,467.288 1138.312,470.924 1138.312,476.36 C1138.312,481.796 1134.136,485.432 1128.916,485.432 C1123.696,485.432 1119.52,481.796 1119.52,476.36 Z M1123.84,476.36 C1123.84,479.06 1125.748,481.544 1128.916,481.544 C1132.084,481.544 1133.992,479.06 1133.992,476.36 C1133.992,473.66 1132.084,471.176 1128.916,471.176 C1125.748,471.176 1123.84,473.66 1123.84,476.36 Z M1142.344,485 L1142.344,467.72 L1146.448,467.72 L1146.448,470.492 L1146.52,470.492 C1147.312,468.764 1148.932,467.288 1151.812,467.288 C1156.456,467.288 1158.112,470.564 1158.112,474.092 L1158.112,485 L1153.792,485 L1153.792,476.252 C1153.792,474.344 1153.648,471.176 1150.624,471.176 C1147.78,471.176 1146.664,473.264 1146.664,475.568 L1146.664,485 L1142.344,485 Z M1163.008,485 L1163.008,467.72 L1167.112,467.72 L1167.112,470.492 L1167.184,470.492 C1167.976,468.764 1169.596,467.288 1172.476,467.288 C1177.12,467.288 1178.776,470.564 1178.776,474.092 L1178.776,485 L1174.456,485 L1174.456,476.252 C1174.456,474.344 1174.312,471.176 1171.288,471.176 C1168.444,471.176 1167.328,473.264 1167.328,475.568 L1167.328,485 L1163.008,485 Z M1200.304,477.872 L1187.128,477.872 C1187.416,480.428 1189.36,481.976 1191.772,481.976 C1193.932,481.976 1195.336,480.968 1196.416,479.636 L1199.512,481.976 C1197.496,484.46 1194.94,485.432 1192.204,485.432 C1186.984,485.432 1182.808,481.796 1182.808,476.36 C1182.808,470.924 1186.984,467.288 1192.204,467.288 C1197.028,467.288 1200.304,470.672 1200.304,476.684 L1200.304,477.872 Z M1187.128,474.632 L1195.984,474.632 C1195.948,472.112 1194.292,470.528 1191.592,470.528 C1189.036,470.528 1187.452,472.148 1187.128,474.632 Z M1219.132,469.916 L1216.144,472.904 C1215.136,471.86 1214.02,471.176 1212.868,471.176 C1209.7,471.176 1207.792,473.66 1207.792,476.36 C1207.792,479.06 1209.7,481.544 1212.868,481.544 C1214.2,481.544 1215.424,480.968 1216.216,479.924 L1219.096,483.02 C1217.332,484.784 1214.38,485.432 1212.868,485.432 C1207.648,485.432 1203.472,481.796 1203.472,476.36 C1203.472,470.924 1207.648,467.288 1212.868,467.288 C1215.064,467.288 1217.476,468.08 1219.132,469.916 Z M1223.236,471.392 L1219.672,471.392 L1219.672,467.72 L1223.236,467.72 L1223.236,462.716 L1227.556,462.716 L1227.556,467.72 L1232.308,467.72 L1232.308,471.392 L1227.556,471.392 L1227.556,478.952 C1227.556,480.68 1228.06,481.76 1229.968,481.76 C1230.724,481.76 1231.768,481.616 1232.308,481.22 L1232.308,484.856 C1231.408,485.288 1229.896,485.432 1228.888,485.432 C1224.316,485.432 1223.236,483.38 1223.236,479.312 L1223.236,471.392 Z M1250.02,485 L1244.008,467.72 L1248.688,467.72 L1252.432,479.816 L1252.504,479.816 L1255.996,467.72 L1260.676,467.72 L1264.42,479.816 L1264.492,479.816 L1268.092,467.72 L1272.448,467.72 L1266.58,485 L1262.296,485 L1258.192,473.192 L1258.12,473.192 L1254.484,485 L1250.02,485 Z M1275.076,485 L1275.076,467.72 L1279.396,467.72 L1279.396,485 L1275.076,485 Z M1274.464,461.852 C1274.464,460.484 1275.616,459.26 1277.2,459.26 C1278.784,459.26 1280.008,460.376 1280.008,461.852 C1280.008,463.328 1278.784,464.444 1277.2,464.444 C1275.616,464.444 1274.464,463.22 1274.464,461.852 Z M1285.912,471.392 L1282.348,471.392 L1282.348,467.72 L1285.912,467.72 L1285.912,462.716 L1290.232,462.716 L1290.232,467.72 L1294.984,467.72 L1294.984,471.392 L1290.232,471.392 L1290.232,478.952 C1290.232,480.68 1290.736,481.76 1292.644,481.76 C1293.4,481.76 1294.444,481.616 1294.984,481.22 L1294.984,484.856 C1294.084,485.288 1292.572,485.432 1291.564,485.432 C1286.992,485.432 1285.912,483.38 1285.912,479.312 L1285.912,471.392 Z M1302.688,457.784 L1302.688,470.132 L1302.76,470.132 C1303.444,468.692 1305.172,467.288 1307.836,467.288 C1312.48,467.288 1314.136,470.564 1314.136,474.092 L1314.136,485 L1309.816,485 L1309.816,476.252 C1309.816,474.344 1309.672,471.176 1306.648,471.176 C1303.804,471.176 1302.688,473.264 1302.688,475.568 L1302.688,485 L1298.368,485 L1298.368,457.784 L1302.688,457.784 Z M827.488,523.144 L820.108,505.72 L824.86,505.72 L829.684,517.708 L829.756,517.708 L834.076,505.72 L838.576,505.72 L830.404,526.708 C829.144,529.948 827.632,531.64 823.816,531.64 C822.7,531.64 821.584,531.496 820.504,531.208 L821.044,527.32 C821.728,527.572 822.484,527.752 823.24,527.752 C825.364,527.752 825.94,526.996 826.66,525.196 L827.488,523.144 Z M840.268,514.36 C840.268,508.924 844.444,505.288 849.664,505.288 C854.884,505.288 859.06,508.924 859.06,514.36 C859.06,519.796 854.884,523.432 849.664,523.432 C844.444,523.432 840.268,519.796 840.268,514.36 Z M844.588,514.36 C844.588,517.06 846.496,519.544 849.664,519.544 C852.832,519.544 854.74,517.06 854.74,514.36 C854.74,511.66 852.832,509.176 849.664,509.176 C846.496,509.176 844.588,511.66 844.588,514.36 Z M878.86,505.72 L878.86,523 L874.756,523 L874.756,520.228 L874.684,520.228 C873.892,521.956 872.272,523.432 869.392,523.432 C864.748,523.432 863.092,520.156 863.092,516.628 L863.092,505.72 L867.412,505.72 L867.412,514.468 C867.412,516.376 867.556,519.544 870.58,519.544 C873.424,519.544 874.54,517.456 874.54,515.152 L874.54,505.72 L878.86,505.72 Z M883.756,523 L883.756,505.72 L888.076,505.72 L888.076,508.456 L888.148,508.456 C889.084,506.476 890.992,505.288 893.26,505.288 C893.8,505.288 894.304,505.396 894.808,505.54 L894.808,509.716 C894.088,509.536 893.404,509.392 892.72,509.392 C888.652,509.392 888.076,512.812 888.076,513.748 L888.076,523 L883.756,523 Z M923.212,507.916 L920.224,510.904 C919.216,509.86 918.1,509.176 916.948,509.176 C913.78,509.176 911.872,511.66 911.872,514.36 C911.872,517.06 913.78,519.544 916.948,519.544 C918.28,519.544 919.504,518.968 920.296,517.924 L923.176,521.02 C921.412,522.784 918.46,523.432 916.948,523.432 C911.728,523.432 907.552,519.796 907.552,514.36 C907.552,508.924 911.728,505.288 916.948,505.288 C919.144,505.288 921.556,506.08 923.212,507.916 Z M936.568,523 L936.568,520.624 L936.46,520.624 C935.236,522.568 933.22,523.432 930.916,523.432 C927.712,523.432 924.616,521.668 924.616,518.248 C924.616,512.632 931.168,512.236 935.488,512.236 L936.568,512.236 L936.568,511.768 C936.568,509.644 934.912,508.528 932.608,508.528 C930.808,508.528 929.152,509.248 928,510.328 L925.732,508.06 C927.64,506.116 930.34,505.288 933.076,505.288 C940.456,505.288 940.456,510.616 940.456,513.064 L940.456,523 L936.568,523 Z M936.316,516.232 L936.316,515.26 L935.416,515.26 C933.04,515.26 928.936,515.44 928.936,517.924 C928.936,519.508 930.556,520.192 931.96,520.192 C934.912,520.192 936.316,518.644 936.316,516.232 Z M944.92,523 L944.92,505.72 L949.024,505.72 L949.024,508.42 L949.096,508.42 C949.852,506.8 951.508,505.288 954.388,505.288 C957.052,505.288 958.888,506.332 959.788,508.492 C961.048,506.296 962.884,505.288 965.476,505.288 C970.084,505.288 971.704,508.564 971.704,512.704 L971.704,523 L967.384,523 L967.384,513.208 C967.384,511.048 966.736,509.176 964.18,509.176 C961.48,509.176 960.472,511.408 960.472,513.64 L960.472,523 L956.152,523 L956.152,512.704 C956.152,510.58 955.288,509.176 953.2,509.176 C950.356,509.176 949.24,511.264 949.24,513.568 L949.24,523 L944.92,523 Z M976.42,531.208 L976.42,505.72 L980.524,505.72 L980.524,508.312 L980.596,508.312 C981.856,506.224 984.124,505.288 986.536,505.288 C991.864,505.288 995.068,509.248 995.068,514.36 C995.068,519.472 991.648,523.432 986.716,523.432 C983.476,523.432 981.748,521.92 980.848,520.804 L980.74,520.804 L980.74,531.208 L976.42,531.208 Z M990.748,514.36 C990.748,511.66 988.84,509.176 985.672,509.176 C982.504,509.176 980.596,511.66 980.596,514.36 C980.596,517.06 982.504,519.544 985.672,519.544 C988.84,519.544 990.748,517.06 990.748,514.36 Z M1014.868,505.72 L1014.868,523 L1010.764,523 L1010.764,520.228 L1010.692,520.228 C1009.9,521.956 1008.28,523.432 1005.4,523.432 C1000.756,523.432 999.1,520.156 999.1,516.628 L999.1,505.72 L1003.42,505.72 L1003.42,514.468 C1003.42,516.376 1003.564,519.544 1006.588,519.544 C1009.432,519.544 1010.548,517.456 1010.548,515.152 L1010.548,505.72 L1014.868,505.72 Z M1031.86,507.916 L1028.98,510.508 C1028.152,509.356 1027.072,508.744 1025.596,508.744 C1024.444,508.744 1023.076,509.284 1023.076,510.58 C1023.076,513.676 1032.4,511.156 1032.4,517.888 C1032.4,521.992 1028.476,523.432 1024.948,523.432 C1022.284,523.432 1019.98,522.748 1018.216,520.768 L1021.096,518.068 C1022.212,519.292 1023.364,520.192 1025.2,520.192 C1026.46,520.192 1028.08,519.58 1028.08,518.212 C1028.08,514.648 1018.756,517.456 1018.756,510.868 C1018.756,507.016 1022.212,505.288 1025.704,505.288 C1028.008,505.288 1030.456,506.008 1031.86,507.916 Z M1061.2,507.916 L1058.212,510.904 C1057.204,509.86 1056.088,509.176 1054.936,509.176 C1051.768,509.176 1049.86,511.66 1049.86,514.36 C1049.86,517.06 1051.768,519.544 1054.936,519.544 C1056.268,519.544 1057.492,518.968 1058.284,517.924 L1061.164,521.02 C1059.4,522.784 1056.448,523.432 1054.936,523.432 C1049.716,523.432 1045.54,519.796 1045.54,514.36 C1045.54,508.924 1049.716,505.288 1054.936,505.288 C1057.132,505.288 1059.544,506.08 1061.2,507.916 Z M1062.892,514.36 C1062.892,508.924 1067.068,505.288 1072.288,505.288 C1077.508,505.288 1081.684,508.924 1081.684,514.36 C1081.684,519.796 1077.508,523.432 1072.288,523.432 C1067.068,523.432 1062.892,519.796 1062.892,514.36 Z M1067.212,514.36 C1067.212,517.06 1069.12,519.544 1072.288,519.544 C1075.456,519.544 1077.364,517.06 1077.364,514.36 C1077.364,511.66 1075.456,509.176 1072.288,509.176 C1069.12,509.176 1067.212,511.66 1067.212,514.36 Z M1085.536,523 L1085.536,505.72 L1089.64,505.72 L1089.64,508.42 L1089.712,508.42 C1090.468,506.8 1092.124,505.288 1095.004,505.288 C1097.668,505.288 1099.504,506.332 1100.404,508.492 C1101.664,506.296 1103.5,505.288 1106.092,505.288 C1110.7,505.288 1112.32,508.564 1112.32,512.704 L1112.32,523 L1108,523 L1108,513.208 C1108,511.048 1107.352,509.176 1104.796,509.176 C1102.096,509.176 1101.088,511.408 1101.088,513.64 L1101.088,523 L1096.768,523 L1096.768,512.704 C1096.768,510.58 1095.904,509.176 1093.816,509.176 C1090.972,509.176 1089.856,511.264 1089.856,513.568 L1089.856,523 L1085.536,523 Z M1116.856,523 L1116.856,505.72 L1120.96,505.72 L1120.96,508.42 L1121.032,508.42 C1121.788,506.8 1123.444,505.288 1126.324,505.288 C1128.988,505.288 1130.824,506.332 1131.724,508.492 C1132.984,506.296 1134.82,505.288 1137.412,505.288 C1142.02,505.288 1143.64,508.564 1143.64,512.704 L1143.64,523 L1139.32,523 L1139.32,513.208 C1139.32,511.048 1138.672,509.176 1136.116,509.176 C1133.416,509.176 1132.408,511.408 1132.408,513.64 L1132.408,523 L1128.088,523 L1128.088,512.704 C1128.088,510.58 1127.224,509.176 1125.136,509.176 C1122.292,509.176 1121.176,511.264 1121.176,513.568 L1121.176,523 L1116.856,523 Z M1164.124,505.72 L1164.124,523 L1160.02,523 L1160.02,520.228 L1159.948,520.228 C1159.156,521.956 1157.536,523.432 1154.656,523.432 C1150.012,523.432 1148.356,520.156 1148.356,516.628 L1148.356,505.72 L1152.676,505.72 L1152.676,514.468 C1152.676,516.376 1152.82,519.544 1155.844,519.544 C1158.688,519.544 1159.804,517.456 1159.804,515.152 L1159.804,505.72 L1164.124,505.72 Z M1169.02,523 L1169.02,505.72 L1173.124,505.72 L1173.124,508.492 L1173.196,508.492 C1173.988,506.764 1175.608,505.288 1178.488,505.288 C1183.132,505.288 1184.788,508.564 1184.788,512.092 L1184.788,523 L1180.468,523 L1180.468,514.252 C1180.468,512.344 1180.324,509.176 1177.3,509.176 C1174.456,509.176 1173.34,511.264 1173.34,513.568 L1173.34,523 L1169.02,523 Z M1189.756,523 L1189.756,505.72 L1194.076,505.72 L1194.076,523 L1189.756,523 Z M1189.144,499.852 C1189.144,498.484 1190.296,497.26 1191.88,497.26 C1193.464,497.26 1194.688,498.376 1194.688,499.852 C1194.688,501.328 1193.464,502.444 1191.88,502.444 C1190.296,502.444 1189.144,501.22 1189.144,499.852 Z M1200.592,509.392 L1197.028,509.392 L1197.028,505.72 L1200.592,505.72 L1200.592,500.716 L1204.912,500.716 L1204.912,505.72 L1209.664,505.72 L1209.664,509.392 L1204.912,509.392 L1204.912,516.952 C1204.912,518.68 1205.416,519.76 1207.324,519.76 C1208.08,519.76 1209.124,519.616 1209.664,519.22 L1209.664,522.856 C1208.764,523.288 1207.252,523.432 1206.244,523.432 C1201.672,523.432 1200.592,521.38 1200.592,517.312 L1200.592,509.392 Z M1218.088,523.144 L1210.708,505.72 L1215.46,505.72 L1220.284,517.708 L1220.356,517.708 L1224.676,505.72 L1229.176,505.72 L1221.004,526.708 C1219.744,529.948 1218.232,531.64 1214.416,531.64 C1213.3,531.64 1212.184,531.496 1211.104,531.208 L1211.644,527.32 C1212.328,527.572 1213.084,527.752 1213.84,527.752 C1215.964,527.752 1216.54,526.996 1217.26,525.196 L1218.088,523.144 Z M1231.732,520.48 C1231.732,518.932 1233.028,517.672 1234.612,517.672 C1236.16,517.672 1237.492,518.86 1237.492,520.408 C1237.492,521.956 1236.196,523.216 1234.612,523.216 C1233.1,523.216 1231.732,522.028 1231.732,520.48 Z" id="The-best-way-to-conn" fill="#FFFFFF"></path>
    </g>
</svg>