<?xml version="1.0" encoding="UTF-8"?>
<svg width="98px" height="16px" viewBox="0 0 98 16" version="1.1" xmlns="http://www.w3.org/2000/svg" xmlns:xlink="http://www.w3.org/1999/xlink">
    <!-- Generator: Sketch 48.2 (47327) - http://www.bohemiancoding.com/sketch -->
    <title>CONTACT</title>
    <desc>Created with Sketch.</desc>
    <defs></defs>
    <g id="Desktop-HD-Copy-2" stroke="none" stroke-width="1" fill="none" fill-rule="evenodd" transform="translate(-1250.000000, -91.000000)">
        <path d="M1263.26,93.72 L1261.3,95.16 C1260.26,94.06 1259.3,93.76 1258.32,93.76 C1255.4,93.76 1253.46,96 1253.46,98.82 C1253.46,101.84 1255.4,104.08 1258.32,104.08 C1259.46,104.08 1260.56,103.56 1261.5,102.36 L1263.58,103.84 C1262.3,105.6 1260.38,106.36 1258.3,106.36 C1253.94,106.36 1250.82,103.4 1250.82,98.98 C1250.82,94.44 1253.94,91.48 1258.3,91.48 C1260.22,91.48 1261.86,92.1 1263.26,93.72 Z M1264.52,98.98 C1264.52,94.44 1267.64,91.48 1272,91.48 C1276.42,91.4 1279.54,94.36 1279.54,98.9 C1279.54,103.32 1276.42,106.28 1272,106.36 C1267.64,106.36 1264.52,103.4 1264.52,98.98 Z M1267.16,98.82 C1267.16,101.84 1269.1,104.08 1272.02,104.08 C1274.96,104.08 1276.9,101.84 1276.9,98.82 C1276.9,96 1274.96,93.76 1272.02,93.76 C1269.1,93.76 1267.16,96 1267.16,98.82 Z M1292.16,102.38 L1292.18,102.36 L1292.18,91.84 L1294.7,91.84 L1294.7,106 L1291.5,106 L1284.5,95.14 L1284.46,95.14 L1284.46,106 L1281.94,106 L1281.94,91.84 L1285.28,91.84 L1292.14,102.36 L1292.16,102.38 Z M1300.76,106 L1300.76,94.12 L1296.42,94.12 L1296.42,91.84 L1307.62,91.84 L1307.62,94.12 L1303.28,94.12 L1303.28,106 L1300.76,106 Z M1307.76,106 L1313.92,91.84 L1316.1,91.84 L1322.2,106 L1319.32,106 L1318,102.76 L1311.86,102.76 L1310.58,106 L1307.76,106 Z M1312.72,100.6 L1317.12,100.6 L1314.94,94.84 L1312.72,100.6 Z M1335.46,93.72 L1333.5,95.16 C1332.46,94.06 1331.5,93.76 1330.52,93.76 C1327.6,93.76 1325.66,96 1325.66,98.82 C1325.66,101.84 1327.6,104.08 1330.52,104.08 C1331.66,104.08 1332.76,103.56 1333.7,102.36 L1335.78,103.84 C1334.5,105.6 1332.58,106.36 1330.5,106.36 C1326.14,106.36 1323.02,103.4 1323.02,98.98 C1323.02,94.44 1326.14,91.48 1330.5,91.48 C1332.42,91.48 1334.06,92.1 1335.46,93.72 Z M1340.38,106 L1340.38,94.12 L1336.04,94.12 L1336.04,91.84 L1347.24,91.84 L1347.24,94.12 L1342.9,94.12 L1342.9,106 L1340.38,106 Z" id="CONTACT" fill="#FFFFFF"></path>
    </g>
</svg>