<?xml version="1.0" encoding="UTF-8"?>
<svg width="186px" height="58px" viewBox="0 0 186 58" version="1.1" xmlns="http://www.w3.org/2000/svg" xmlns:xlink="http://www.w3.org/1999/xlink">
    <!-- Generator: Sketch 48.2 (47327) - http://www.bohemiancoding.com/sketch -->
    <title>Page 1</title>
    <desc>Created with Sketch.</desc>
    <defs>
        <polygon id="path-1" points="0 57.6466085 185.650643 57.6466085 185.650643 0.000326760563 0 0.000326760563"></polygon>
    </defs>
    <g id="Desktop-HD-Copy-4" stroke="none" stroke-width="1" fill="none" fill-rule="evenodd" transform="translate(-78.000000, -62.000000)">
        <g id="Page-1" transform="translate(78.000000, 62.000000)">
            <path d="M24.3030835,18.6395662 C26.3037965,20.8419324 27.3033443,23.7623549 27.3033443,27.3992 L27.3033443,46.0082141 L19.2624835,46.0082141 L19.2624835,28.5502141 C19.2624835,26.8126648 18.7521965,25.4084113 17.7324313,24.3382704 C16.7118574,23.2664958 15.3823617,22.7314254 13.7415183,22.7314254 C12.1014835,22.7314254 10.7517704,23.2664958 9.69157043,24.3382704 C8.63137043,25.4084113 8.10086609,26.8126648 8.10086609,28.5502141 L8.10086609,46.0082141 L0.00016173913,46.0082141 L0.00016173913,0.546016901 L8.10086609,0.546016901 L8.10086609,18.5488901 C10.2212661,16.4069746 12.9417183,15.3360169 16.2622226,15.3360169 C19.622353,15.3360169 22.3031791,16.4372 24.3030835,18.6395662" id="Fill-1" fill="#FEFEFE"></path>
            <mask id="mask-2" fill="white">
                <use xlink:href="#path-1"></use>
            </mask>
            <g id="Clip-4"></g>
            <path d="M29.100913,46.0082141 L37.2024261,46.0082141 L37.2024261,16.0034254 L29.100913,16.0034254 L29.100913,46.0082141 Z M36.8126348,1.45441127 C37.8324,2.42407324 38.342687,3.63717183 38.342687,5.09207324 C38.342687,6.50612958 37.8324,7.69798873 36.8126348,8.66846761 C35.7920609,9.63731268 34.5620348,10.1225521 33.1217478,10.1225521 C31.6814609,10.1225521 30.4611391,9.63731268 29.4615913,8.66846761 C28.4612348,7.69798873 27.9606522,6.50612958 27.9606522,5.09207324 C27.9606522,3.63717183 28.4612348,2.42407324 29.4615913,1.45441127 C30.4611391,0.484749296 31.6814609,0.000326760563 33.1217478,0.000326760563 C34.5620348,0.000326760563 35.7920609,0.484749296 36.8126348,1.45441127 Z" id="Fill-3" fill="#FEFEFE" mask="url(#mask-2)"></path>
            <path d="M60.0645757,36.0673408 C61.5444887,34.6532845 62.2852539,32.6518761 62.2852539,30.0655662 C62.2852539,27.4792563 61.5550017,25.5399324 60.0944974,24.2467775 C58.633993,22.9536225 56.8637583,22.3066366 54.783793,22.3066366 C52.5833322,22.3066366 50.7532539,23.0042704 49.2927496,24.3987211 C47.8330539,25.7923549 47.1028017,27.7022704 47.1028017,30.1268338 C47.1028017,32.5505803 47.8427583,34.5013408 49.3226713,35.9766648 C50.803393,37.4511718 52.623767,38.1888338 54.783793,38.1888338 C56.8241322,38.1888338 58.5838539,37.4813972 60.0645757,36.0673408 Z M70.2654626,16.0026085 L70.2654626,42.6744394 C70.2654626,47.5635944 68.8656104,51.2821296 66.0650974,53.8275944 C63.265393,56.3730592 59.5445843,57.6466085 54.90348,57.6466085 C49.3032626,57.6466085 44.442193,55.7881577 40.3218887,52.0696225 L44.5820974,46.3717352 C47.9026017,48.9580451 51.1228278,50.2512 54.2435843,50.2512 C56.643793,50.2512 58.5644452,49.6556789 60.0047322,48.4630028 C61.4450191,47.2711437 62.1647583,45.503369 62.1647583,43.1596789 L62.1647583,41.5226085 C60.0047322,43.9071437 56.9842539,45.0990028 53.1033235,45.0990028 C48.9830191,45.0990028 45.5824539,43.7143549 42.9024365,40.946693 C40.2216104,38.1782141 38.8816017,34.5920169 38.8816017,30.1872845 C38.8816017,25.741707 40.2216104,22.1555099 42.9024365,19.4278761 C45.5824539,16.7002423 48.9830191,15.3360169 53.1033235,15.3360169 C57.4638104,15.3360169 60.7050626,16.8113408 62.8246539,19.7611718 L62.8246539,16.0026085 L70.2654626,16.0026085 Z" id="Fill-5" fill="#FEFEFE" mask="url(#mask-2)"></path>
            <path d="M96.6063783,18.6395662 C98.6070913,20.8419324 99.6066391,23.7623549 99.6066391,27.3992 L99.6066391,46.0082141 L91.5657783,46.0082141 L91.5657783,28.5502141 C91.5657783,26.8126648 91.0554913,25.4084113 90.0357261,24.3382704 C89.0151522,23.2664958 87.6856565,22.7314254 86.044813,22.7314254 C84.4047783,22.7314254 83.0550652,23.2664958 81.9948652,24.3382704 C80.9346652,25.4084113 80.4041609,26.8126648 80.4041609,28.5502141 L80.4041609,46.0082141 L72.3034565,46.0082141 L72.3034565,0.546016901 L80.4041609,0.546016901 L80.4041609,18.5488901 C82.5245609,16.4069746 85.245013,15.3360169 88.5655174,15.3360169 C91.9256478,15.3360169 94.6064739,16.4372 96.6063783,18.6395662" id="Fill-6" fill="#FEFEFE" mask="url(#mask-2)"></path>
            <polygon id="Fill-7" fill="#FEFEFE" mask="url(#mask-2)" points="121.446921 46.0081324 109.505721 29.4593437 109.505721 46.0081324 101.404208 46.0081324 101.404208 0.545935211 109.505721 0.545935211 109.505721 28.8532028 120.186973 16.0033437 129.787808 16.0033437 118.626999 29.2779915 130.688695 46.0081324"></polygon>
            <path d="M136.267158,23.5801042 C134.986993,24.6714845 134.107132,26.1459915 133.626767,28.0052592 L147.188593,28.0052592 C147.148967,26.1459915 146.50848,24.6714845 145.267941,23.5801042 C144.02821,22.4887239 142.52808,21.9430338 140.76755,21.9430338 C139.047454,21.9430338 137.547323,22.4887239 136.267158,23.5801042 M154.509715,33.7635972 L133.626767,33.7635972 C134.146758,35.662893 135.13741,37.1275972 136.597106,38.1585268 C138.05761,39.1886394 139.867471,39.7041042 142.028306,39.7041042 C144.948506,39.7041042 147.708584,38.6935972 150.30935,36.6725831 L153.66948,42.249569 C150.149228,45.241062 146.189045,46.7359915 141.788123,46.7359915 C137.107393,46.7359915 133.226463,45.2304423 130.146141,42.2193437 C127.065819,39.209062 125.526063,35.4807239 125.526063,31.0359634 C125.526063,26.6304141 127.016489,22.9135127 129.996532,19.8828085 C132.976576,16.8521042 136.667463,15.3359352 141.068384,15.3359352 C145.188689,15.3359352 148.548819,16.6699352 151.148776,19.3371183 C153.749541,22.0034845 155.049923,25.3176535 155.049923,29.2779915 C155.049923,30.732893 154.869584,32.2278225 154.509715,33.7635972" id="Fill-8" fill="#FEFEFE" mask="url(#mask-2)"></path>
            <path d="M185.650563,16.0030169 L171.428841,48.614538 C170.068615,51.7261155 168.448797,54.0093549 166.567771,55.4650732 C164.687554,56.9191577 162.367406,57.6470169 159.606519,57.6470169 C157.926858,57.6470169 156.186545,57.4043972 154.386389,56.9191577 L154.386389,50.0694394 C156.22698,50.2311859 157.38665,50.3120592 157.867015,50.3120592 C159.307302,50.3120592 160.527623,50.0285944 161.527171,49.4632986 C162.527528,48.8980028 163.367763,47.8270451 164.047876,46.2504254 L164.947954,44.2498338 L153.546154,16.0030169 L162.127223,16.0030169 L169.388502,35.7034113 L177.129337,16.0030169 L185.650563,16.0030169 Z" id="Fill-9" fill="#FEFEFE" mask="url(#mask-2)"></path>
        </g>
    </g>
</svg>